<svg xmlns="http://www.w3.org/2000/svg" viewBox="38.253326416015625 159.99998809814454 498.4933624267578 254.99999999999997"> <svg xmlns="http://www.w3.org/2000/svg" viewBox="0.5 0.5 186 186" fill="none" height="115" width="115" y="229.99998809814454" x="108.25332641601562" preserveAspectRatio="xMinYMin" style="overflow: visible;"><path fill-rule="evenodd" clip-rule="evenodd" d="M59.1501 34.677C59.1501 15.8715 74.5202 0.5 93.3251 0.5C112.13 0.5 127.5 15.8715 127.5 34.677V62.646C127.5 64.579 125.933 66.146 124 66.146H34.675C19.7366 66.146 7.5 78.383 7.5 93.323C7.5 108.263 19.7366 120.5 34.675 120.5H51.6267C53.5597 120.5 55.1267 122.067 55.1267 124C55.1267 125.933 53.5597 127.5 51.6267 127.5H34.675C15.8701 127.5 0.5 112.129 0.5 93.323C0.5 74.5175 15.8701 59.146 34.675 59.146H120.5V34.677C120.5 19.737 108.263 7.5 93.3251 7.5C78.3867 7.5 66.1501 19.737 66.1501 34.677V51.6299C66.1501 53.5629 64.5831 55.1299 62.6501 55.1299C60.7171 55.1299 59.1501 53.5629 59.1501 51.6299V34.677Z" fill="#60CFB9" style="fill: #60CFB9;"></path><path fill-rule="evenodd" clip-rule="evenodd" d="M131.873 63C131.873 61.067 133.44 59.5 135.373 59.5H152.325C171.13 59.5 186.5 74.8715 186.5 93.677C186.5 112.482 171.13 127.854 152.325 127.854H66.5V152.323C66.5 167.263 78.7366 179.5 93.675 179.5C108.613 179.5 120.85 167.263 120.85 152.323V135.37C120.85 133.437 122.417 131.87 124.35 131.87C126.283 131.87 127.85 133.437 127.85 135.37V152.323C127.85 171.129 112.48 186.5 93.675 186.5C74.8701 186.5 59.5 171.129 59.5 152.323V124.354C59.5 122.421 61.067 120.854 63 120.854H152.325C167.264 120.854 179.5 108.617 179.5 93.677C179.5 78.737 167.264 66.5 152.325 66.5H135.373C133.44 66.5 131.873 64.933 131.873 63Z" fill="#4E7FE9" style="fill: #4E7FE9;"></path></svg> <svg x="248.25332641601562" y="263.47998809814453" viewBox="3.1600000858306885 5.099999904632568 218.4933624267578 52.06999969482422" height="52.06999969482422" width="218.4933624267578" xmlns="http://www.w3.org/2000/svg" style="overflow: visible;"><g fill="#ffffff" fill-opacity="1" style=""><path d="M17.24 45.14L17.24 45.14Q13.16 45.14 9.97 43.27Q6.78 41.41 4.97 38.22Q3.16 35.04 3.16 31.01L3.16 31.01Q3.16 26.88 4.95 23.66Q6.73 20.45 9.84 18.64Q12.95 16.83 16.98 16.83L16.98 16.83Q19.99 16.83 22.49 17.98Q24.99 19.13 26.98 21.42L26.98 21.42Q27.69 22.24 27.49 23.10Q27.29 23.97 26.37 24.63L26.37 24.63Q25.65 25.14 24.79 24.96Q23.92 24.79 23.21 24.07L23.21 24.07Q20.71 21.42 16.98 21.42L16.98 21.42Q14.38 21.42 12.39 22.62Q10.40 23.82 9.28 25.96Q8.16 28.10 8.16 31.01L8.16 31.01Q8.16 33.76 9.31 35.90Q10.46 38.05 12.50 39.30Q14.54 40.55 17.24 40.55L17.24 40.55Q19.02 40.55 20.37 40.11Q21.73 39.68 22.85 38.76L22.85 38.76Q23.66 38.10 24.53 38.02Q25.40 37.94 26.06 38.51L26.06 38.51Q26.93 39.22 27.03 40.11Q27.13 41.00 26.42 41.72L26.42 41.72Q22.75 45.14 17.24 45.14ZM41.97 44.93L41.87 44.93Q39.63 44.93 37.89 43.71Q36.16 42.48 35.19 40.37Q34.22 38.25 34.22 35.50L34.22 35.50L34.22 7.65Q34.22 6.53 34.94 5.81Q35.65 5.10 36.77 5.10L36.77 5.10Q37.89 5.10 38.61 5.81Q39.32 6.53 39.32 7.65L39.32 7.65L39.32 35.50Q39.32 37.38 40.04 38.61Q40.75 39.83 41.87 39.83L41.87 39.83L43.15 39.83Q44.17 39.83 44.80 40.55Q45.44 41.26 45.44 42.38L45.44 42.38Q45.44 43.50 44.47 44.22Q43.50 44.93 41.97 44.93L41.97 44.93ZM76.76 44.93L53.70 44.93Q52.58 44.93 51.82 44.17Q51.05 43.40 51.05 42.28L51.05 42.28L51.05 7.75Q51.05 6.58 51.82 5.84Q52.58 5.10 53.70 5.10L53.70 5.10L76.76 5.10Q77.93 5.10 78.64 5.79Q79.36 6.48 79.36 7.60L79.36 7.60Q79.36 8.67 78.64 9.33Q77.93 10.00 76.76 10.00L76.76 10.00L56.36 10.00L56.36 22.39L70.99 22.39Q72.17 22.39 72.88 23.08Q73.59 23.77 73.59 24.84L73.59 24.84Q73.59 25.91 72.88 26.60Q72.17 27.29 70.99 27.29L70.99 27.29L56.36 27.29L56.36 40.04L76.76 40.04Q77.93 40.04 78.64 40.70Q79.36 41.36 79.36 42.43L79.36 42.43Q79.36 43.55 78.64 44.24Q77.93 44.93 76.76 44.93L76.76 44.93ZM89.40 44.93L89.40 44.93Q88.28 44.93 87.52 44.17Q86.75 43.40 86.75 42.28L86.75 42.28L86.75 7.75Q86.75 6.58 87.52 5.84Q88.28 5.10 89.40 5.10L89.40 5.10Q90.58 5.10 91.32 5.84Q92.06 6.58 92.06 7.75L92.06 7.75L92.06 22.39L115.72 22.39L115.72 7.75Q115.72 6.58 116.48 5.84Q117.25 5.10 118.37 5.10L118.37 5.10Q119.54 5.10 120.26 5.84Q120.97 6.58 120.97 7.75L120.97 7.75L120.97 42.28Q120.97 43.40 120.26 44.17Q119.54 44.93 118.37 44.93L118.37 44.93Q117.25 44.93 116.48 44.17Q115.72 43.40 115.72 42.28L115.72 42.28L115.72 27.08L92.06 27.08L92.06 42.28Q92.06 43.40 91.32 44.17Q90.58 44.93 89.40 44.93ZM133.82 44.93L133.82 44.93Q132.70 44.93 131.94 44.17Q131.17 43.40 131.17 42.28L131.17 42.28L131.17 7.75Q131.17 6.58 131.94 5.84Q132.70 5.10 133.82 5.10L133.82 5.10L143.00 5.10Q146.83 5.10 149.79 6.71Q152.75 8.31 154.40 11.12Q156.06 13.92 156.06 17.65L156.06 17.65Q156.06 21.11 154.40 23.82Q152.75 26.52 149.79 28.05Q146.83 29.58 143.00 29.58L143.00 29.58L136.48 29.58L136.48 42.28Q136.48 43.40 135.74 44.17Q135.00 44.93 133.82 44.93ZM154.99 44.93L154.99 44.93Q154.28 44.93 153.69 44.63Q153.10 44.32 152.69 43.66L152.69 43.66L143.51 28.87L148.67 27.39L157.03 40.85Q157.95 42.33 157.28 43.63Q156.62 44.93 154.99 44.93ZM136.48 10.00L136.48 24.68L143.00 24.68Q145.35 24.68 147.14 23.79Q148.92 22.90 149.94 21.29Q150.96 19.69 150.96 17.65L150.96 17.65Q150.96 15.40 149.94 13.67Q148.92 11.93 147.14 10.97Q145.35 10.00 143.00 10.00L143.00 10.00L136.48 10.00ZM166.01 44.93L166.01 44.93Q164.88 44.93 164.14 44.19Q163.40 43.45 163.40 42.33L163.40 42.33L163.40 19.64Q163.40 18.46 164.14 17.75Q164.88 17.03 166.01 17.03L166.01 17.03Q167.18 17.03 167.89 17.75Q168.61 18.46 168.61 19.64L168.61 19.64L168.61 42.33Q168.61 43.45 167.89 44.19Q167.18 44.93 166.01 44.93ZM166.01 12.50L166.01 12.50Q164.63 12.50 163.63 11.50Q162.64 10.51 162.64 9.13L162.64 9.13Q162.64 7.75 163.63 6.76Q164.63 5.76 166.01 5.76L166.01 5.76Q167.38 5.76 168.38 6.76Q169.37 7.75 169.37 9.13L169.37 9.13Q169.37 10.51 168.38 11.50Q167.38 12.50 166.01 12.50ZM189.36 44.93L188.45 44.93Q185.90 44.93 183.86 43.63Q181.82 42.33 180.64 40.09Q179.47 37.84 179.47 35.04L179.47 35.04L179.47 10.71Q179.47 9.59 180.18 8.87Q180.90 8.16 182.02 8.16L182.02 8.16Q183.14 8.16 183.86 8.87Q184.57 9.59 184.57 10.71L184.57 10.71L184.57 35.04Q184.57 37.08 185.69 38.45Q186.81 39.83 188.45 39.83L188.45 39.83L190.18 39.83Q191.10 39.83 191.73 40.55Q192.37 41.26 192.37 42.38L192.37 42.38Q192.37 43.50 191.53 44.22Q190.69 44.93 189.36 44.93L189.36 44.93ZM188.90 22.44L177.12 22.44Q176.05 22.44 175.39 21.83Q174.73 21.22 174.73 20.30L174.73 20.30Q174.73 19.28 175.39 18.67Q176.05 18.05 177.12 18.05L177.12 18.05L188.90 18.05Q189.98 18.05 190.64 18.67Q191.30 19.28 191.30 20.30L191.30 20.30Q191.30 21.22 190.64 21.83Q189.98 22.44 188.90 22.44L188.90 22.44ZM203.75 57.17L203.75 57.17Q203.24 57.17 202.52 56.87L202.52 56.87Q200.28 55.85 201.30 53.65L201.30 53.65L216.85 18.51Q217.87 16.37 220.06 17.29L220.06 17.29Q222.36 18.26 221.34 20.50L221.34 20.50L205.73 55.59Q205.12 57.17 203.75 57.17ZM209.76 43.81L209.76 43.81Q208.79 44.22 207.95 43.89Q207.11 43.55 206.60 42.59L206.60 42.59L194.92 20.40Q194.41 19.43 194.79 18.54Q195.18 17.65 196.15 17.24L196.15 17.24Q197.12 16.83 197.98 17.16Q198.85 17.49 199.31 18.46L199.31 18.46L210.48 40.65Q210.99 41.62 210.86 42.51Q210.73 43.40 209.76 43.81Z" transform="translate(0, 0)"></path></g></svg></svg>
